<?xml version="1.0" encoding="utf-8"?>
<!-- Generator: Adobe Illustrator 21.0.0, SVG Export Plug-In . SVG Version: 6.00 Build 0)  -->
<svg version="1.1" id="Layer_1" xmlns="http://www.w3.org/2000/svg" xmlns:xlink="http://www.w3.org/1999/xlink" x="0px" y="0px"
	 viewBox="0 0 512 512" style="enable-background:new 0 0 512 512;" xml:space="preserve">
<g>
	<path d="M365.7,217.7H146.3c-2.5,0-4.6,2.1-4.6,4.6V452c0,2.5,2.1,4.6,4.6,4.6h219.4c2.5,0,4.6-2.1,4.6-4.6V222.3
		C370.3,219.8,368.2,217.7,365.7,217.7z M178.3,254.3h155.4v66.9H178.3V254.3z M333.7,420H178.3v-66.9h155.4V420z"/>
	<path d="M205.7,390.3c0,10.1,8.2,18.3,18.3,18.3s18.3-8.2,18.3-18.3S234.1,372,224,372S205.7,380.2,205.7,390.3z M205.7,288.6
		c0,10.1,8.2,18.3,18.3,18.3s18.3-8.2,18.3-18.3s-8.2-18.3-18.3-18.3S205.7,278.5,205.7,288.6z"/>
	<path d="M427.1,173.7c-26.2-69.1-92.9-118.2-171-118.2s-144.8,49.1-171,118.2C35.9,186.6-0.3,231.5,0,284.9
		c0.3,59.7,46.6,108.2,104.9,113.4c2.7,0.2,5-1.9,5-4.6v-34.5c0-2.3-1.7-4.2-4-4.5c-15.4-1.9-30-8.7-41.2-19.7
		c-13.7-13.4-21.3-31.5-21.3-50.6c0-16,5.2-31.1,15-43.7c9.5-12.2,23-21.1,37.8-25l21.7-5.7l7.9-21c4.9-13,11.8-25.3,20.4-36.3
		c8.5-11,18.6-20.6,29.9-28.6c23.5-16.5,51.1-25.3,80-25.3c28.9,0,56.5,8.7,80,25.3c11.4,8,21.4,17.6,29.9,28.6
		c8.6,11,15.5,23.3,20.4,36.3l7.9,20.9l21.6,5.7c31,8.2,52.6,36.4,52.6,68.6c0,19.2-7.5,37.2-21.3,50.6
		c-11.1,11-25.7,17.8-41.1,19.7c-2.3,0.3-3.9,2.2-3.9,4.5v34.6c0,2.7,2.3,4.8,5,4.6C465.4,393,511.6,344.6,512,285
		C512.3,231.7,476.2,186.7,427.1,173.7z"/>
</g>
</svg>
